<?xml version="1.0" encoding="utf-8"?>
<!-- Svg Vector Icons : http://www.onlinewebfonts.com/icon -->
<!DOCTYPE svg PUBLIC "-//W3C//DTD SVG 1.1//EN" "http://www.w3.org/Graphics/SVG/1.1/DTD/svg11.dtd">
<svg version="1.1" xmlns="http://www.w3.org/2000/svg" xmlns:xlink="http://www.w3.org/1999/xlink" x="0px" y="0px" viewBox="0 0 256 256" enable-background="new 0 0 256 256" xml:space="preserve">
<metadata> Svg Vector Icons : http://www.onlinewebfonts.com/icon </metadata>
<g><g><path fill="#FFFFFF" d="M128,176.5c-26.8,0-48.5-21.8-48.5-48.5c0-26.8,21.8-48.5,48.5-48.5c26.8,0,48.5,21.8,48.5,48.5C176.5,154.8,154.8,176.5,128,176.5z M128,101.3c-14.7,0-26.7,12-26.7,26.7s12,26.7,26.7,26.7c14.7,0,26.7-12,26.7-26.7S142.7,101.3,128,101.3z"/><path fill="#FFFFFF" d="M111.7,243.5c-4.2,0-8-2.4-9.9-6.2l-10.1-21c-4.5-1.8-8.8-3.9-12.9-6.3l-21.8,5.2c-4.1,1-8.4-0.5-11.1-3.8l-20.4-25.5c-2.6-3.3-3.1-7.9-1.3-11.7l10.3-20.9c-1.2-4.2-2.2-8.6-2.8-12.9l-17.7-13.8c-3.3-2.6-4.9-6.9-3.9-11l7.2-31.9c0.9-4.1,4.2-7.3,8.3-8.3l22.8-5c2.5-3.5,5.2-6.9,8.1-10L56.3,38c-0.1-4.2,2.3-8.1,6.1-10l29.3-14.4c3.8-1.9,8.4-1.4,11.7,1.3l18.2,14.6c4.7-0.3,9.1-0.3,13.8,0.1l17.3-14.2c3.3-2.7,7.8-3.2,11.6-1.4l29.5,14.1c3.8,1.8,6.2,5.7,6.2,9.9l-0.2,23.3c2.9,3.2,5.5,6.5,7.9,10l21.9,4.6c4.1,0.9,7.4,4,8.4,8.2l7.6,31.8c1,4.1-0.5,8.4-3.8,11.1l-18.2,14.5c-0.7,4.2-1.6,8.3-2.8,12.3l10.3,19.9c2,3.8,1.5,8.3-1,11.7l-19.9,25.9c-2.6,3.4-6.9,4.9-11,4l-22.8-5c-4.1,2.4-8.4,4.5-12.8,6.2l-9.3,20.3c-1.8,3.9-5.6,6.3-9.8,6.4L111.7,243.5C111.8,243.5,111.7,243.5,111.7,243.5z M80.7,187.4c2.1,0,4.2,0.6,6,1.8c5.2,3.4,10.7,6.1,16.5,8.1c2.7,1,5,3,6.3,5.6l9,18.7l18.8-0.2l8.3-18.2c1.3-2.7,3.6-4.8,6.4-5.8c5.8-2,11.3-4.6,16.5-8c2.5-1.6,5.4-2.1,8.3-1.5l20.3,4.5l11.4-14.9l-9.2-17.7c-1.4-2.7-1.6-5.8-0.6-8.6c1.9-5.4,3.2-11,3.8-16.7c0.3-2.9,1.8-5.5,4-7.4l16.3-13l-4.4-18.3l-19.6-4c-2.9-0.6-5.5-2.4-7.1-5c-3-4.9-6.6-9.5-10.7-13.6c-2-2.1-3.2-4.9-3.2-7.8l0.1-20.8l-17-8.1l-15.5,12.7c-2.3,1.9-5.3,2.7-8.3,2.4c-6.3-0.8-11.8-0.8-18-0.1c-2.9,0.3-5.8-0.5-8-2.3l-16.2-13l-16.9,8.3l0.3,20c0,3-1.1,5.9-3.3,8c-4.1,4-7.8,8.6-10.9,13.5c-1.6,2.5-4,4.2-6.9,4.8l-20.3,4.5l-4.1,18.4l15.8,12.3c2.4,1.9,3.9,4.6,4.2,7.6c0.6,5.8,1.8,11.6,3.7,17.2c0.9,2.7,0.7,5.8-0.5,8.4L47,177.6l11.7,14.7l19.5-4.6C79,187.5,79.9,187.4,80.7,187.4z"/></g></g>
</svg>